Coordinates
version=1
nRows=19
nColumns=36
inDegrees=yes

Units are S.I. units (second, meters, Newtons, ...)
If the header above contains a line with 'inDegrees', this indicates whether rotational values are in degrees (yes) or radians (no).

endheader
time	pelvis_tilt	pelvis_list	pelvis_rotation	pelvis_tx	pelvis_ty	pelvis_tz	hip_flexion_r	hip_adduction_r	hip_rotation_r	knee_angle_r	knee_angle_r_beta	ankle_angle_r	subtalar_angle_r	mtp_angle_r	hip_flexion_l	hip_adduction_l	hip_rotation_l	knee_angle_l	knee_angle_l_beta	ankle_angle_l	subtalar_angle_l	mtp_angle_l	lumbar_extension	lumbar_bending	lumbar_rotation	arm_flex_r	arm_add_r	arm_rot_r	elbow_flex_r	pro_sup_r	arm_flex_l	arm_add_l	arm_rot_l	elbow_flex_l	pro_sup_l
      8.10000000	     -6.81527534	     -0.10273843	      7.43261637	     -0.22263853	      0.73457983	      0.01967754	     55.98958854	     -7.90093278	     -5.53688097	      0.40129888	      0.00700399	    -10.07549819	      1.99508003	     -7.49999987	     55.20556449	      9.37557886	     -4.42753540	     76.84458641	      1.34119105	     23.97205168	    -18.04552221	     -7.49999987	    -33.93378590	     -2.30412054	      4.84453128	     66.03578065	     19.99689148	     70.51597072	    129.75759538	     84.21838011	     85.44655300	     22.70012925	     75.01958304	    123.77798792	     76.90015388
      8.11666670	     -7.17259537	      0.03281276	      7.36181114	     -0.22257094	      0.73411724	      0.01960327	     56.19560914	     -7.96294474	     -5.31480793	      0.36323759	      0.00633969	    -10.55074766	      0.79993208	     -7.49999987	     55.45826586	      9.62110205	     -4.32691345	     76.73382446	      1.33925788	     23.97249754	    -18.33609341	     -7.49999987	    -33.64508736	     -2.30717147	      5.04761132	     66.04692943	     20.00805181	     71.11766910	    129.78309930	     85.97231469	     84.96416749	     23.03692261	     75.55936871	    123.74534511	     77.82527937
      8.13333330	     -7.18103617	      0.16630540	      7.22982937	     -0.22451000	      0.73456949	      0.01917318	     56.07112955	     -8.03452572	     -5.37179198	      0.34321612	      0.00599025	    -10.52463235	      0.78824330	     -7.49999987	     55.59965353	      9.82937707	     -4.41914684	     76.78803067	      1.34020396	     24.02068923	    -18.30029438	     -7.49999987	    -33.68647160	     -2.24460227	      5.13565113	     66.15052644	     20.01620365	     71.11608015	    129.77304782	     86.02845030	     84.86292005	     23.00264849	     75.60814383	    123.72562065	     77.85567018
      8.15000000	     -7.29482946	      0.41219736	      6.64707526	     -0.21982922	      0.73418166	      0.01963970	     56.04919616	     -7.71283370	     -5.33000876	      0.30743104	      0.00536568	     -9.94271327	      1.23628046	     -7.49999987	     55.36906653	      9.68865902	     -4.79986125	     76.67054607	      1.33815347	     22.62012529	    -19.16703379	     -7.49999987	    -33.44471668	     -2.47693192	      5.67735886	     66.26511760	     19.66889382	     71.29590599	    129.56843263	     87.04367733	     83.93729193	     22.91442409	     75.92672880	    123.73445692	     78.37471747
      8.16666670	     -7.52298188	      0.71508455	      6.24213062	     -0.21997925	      0.73406495	      0.01899914	     56.33833959	     -7.67986390	     -5.81978828	      0.28225828	      0.00492634	     -9.96413116	      1.75199002	     -7.49999987	     55.25561112	      9.70894861	     -5.27090797	     76.33748842	      1.33234052	     22.58543300	    -18.96894087	     -7.49999987	    -33.27331590	     -2.71209247	      5.63497644	     65.87130052	     19.71686526	     71.28261064	    129.51494689	     92.47969796	     83.56707372	     22.74303154	     75.76174460	    123.49425450	     80.89336111
      8.18333330	     -7.46080112	      1.06182442	      6.06246965	     -0.22178977	      0.73075616	      0.01942618	     56.58813265	     -7.81865312	     -5.82757559	      0.25805178	      0.00450385	    -10.02871565	      1.99146324	     -7.49999987	     55.38476977	      9.86313981	     -5.77362916	     76.53110091	      1.33571969	     21.93181747	    -20.01026340	     -7.49999987	    -33.32810325	     -2.99673885	      5.41962353	     65.67104511	     19.93352342	     71.16543290	    129.41424573	     90.41679584	     83.86914939	     22.71592166	     75.54487620	    123.31609595	     79.50992458
      8.20000000	     -7.55270248	      1.48154296	      6.24523449	     -0.22014081	      0.72943103	      0.01945446	     56.93426527	     -8.29475298	     -5.69788259	      0.23850775	      0.00416275	    -10.59896279	      1.97465435	     -7.49999987	     55.52927559	     10.23974681	     -6.11037382	     76.49593652	      1.33510596	     22.98954763	    -19.16487923	     -7.49999987	    -33.13160773	     -3.09757636	      5.20855621	     65.59455256	     19.96004793	     70.84898888	    129.32025172	     88.01078503	     83.82834536	     22.61684422	     75.30871061	    123.51120194	     78.08176862
      8.21666670	     -7.36144725	      1.70161238	      6.39128763	     -0.22070557	      0.72954627	      0.02024486	     56.78418865	     -8.54134797	     -5.57425588	      0.22943726	      0.00400444	    -10.78653549	      2.42277495	     -7.49999987	     55.53662675	     10.41535841	     -6.19567985	     76.65814290	      1.33793699	     23.08977935	    -18.94681209	     -7.49999987	    -33.28361702	     -3.19352345	      5.11184923	     65.89435057	     19.87108462	     70.17243065	    129.42011591	     92.41669631	     84.09478159	     22.73536897	     74.99861364	    123.32286116	     80.48579248
      8.23333330	     -7.20479852	      1.83056761	      6.59824677	     -0.22466737	      0.72982266	      0.02017335	     56.73618661	     -8.78590107	     -5.29727630	      0.24666508	      0.00430512	    -10.68294498	      2.63613350	     -7.49999987	     55.55715388	     10.67180891	     -6.06219446	     76.86751978	      1.34159131	     23.56513998	    -18.72239444	     -7.49999987	    -33.52821306	     -3.10451821	      5.04811118	     66.18378938	     19.79733263	     70.18011504	    129.29485687	     91.98582598	     84.69921481	     22.87926236	     75.09704863	    123.31921305	     80.09543023
      8.25000000	     -6.82291928	      2.06218825	      6.91767080	     -0.22322982	      0.73346441	      0.01879790	     56.18802932	     -9.19970132	     -5.08980180	      0.26228524	      0.00457774	    -11.13547441	      2.24924115	     -7.49999987	     54.47130199	     11.15992569	     -5.74472874	     75.85832476	      1.32397753	     24.67314386	    -17.59154994	     -7.49999987	    -33.99421106	     -2.90530513	      4.67711085	     66.36608396	     19.93464286	     70.50414361	    128.97549628	     88.93189882	     85.21936947	     22.73491460	     75.10948807	    123.20922613	     78.17484891
      8.26666670	     -6.88437875	      2.11909149	      6.93340702	     -0.22096660	      0.73198330	      0.01810461	     56.15721383	     -9.31901831	     -5.11685971	      0.29483291	      0.00514581	    -11.02055545	      1.97377259	     -7.49999987	     54.24418118	     11.41973967	     -5.44611675	     75.28768913	      1.31401806	     25.23532926	    -17.15270646	     -7.49999987	    -34.01225958	     -2.71498646	      4.64349809	     66.22308597	     19.97960035	     71.03929906	    128.84074716	     89.11810090	     85.21050437	     22.89962030	     75.32307415	    123.30970052	     78.24420459
      8.28333330	     -7.00780790	      2.16459004	      6.62781516	     -0.21864818	      0.73287817	      0.01906627	     56.22258602	     -9.07164581	     -5.06234401	      0.31229598	      0.00545059	    -11.31624764	      1.79942263	     -7.49999987	     54.40181634	     11.23651822	     -5.63279789	     75.51058440	      1.31790832	     25.36000168	    -16.99475147	     -7.49999987	    -33.84600805	     -2.81918953	      4.72010023	     66.08507884	     20.16744442	     71.75137395	    128.84003821	     86.90042522	     84.91403746	     22.76865085	     75.85188949	    123.66807854	     76.94924628
      8.30000000	     -6.96638544	      2.14582234	      6.31138673	     -0.21842310	      0.73216872	      0.01955501	     56.11599109	     -8.78545292	     -5.01146229	      0.32152396	      0.00561165	    -11.52088987	      1.47060351	     -7.49999987	     54.39263150	     11.08154088	     -5.66244954	     75.72974868	      1.32173346	     25.37472005	    -17.31244835	     -7.49999987	    -33.67539213	     -2.89646973	      4.72285600	     65.98490160	     20.27495532	     72.03364379	    128.73995725	     86.59641402	     84.95631557	     22.56767210	     75.86689026	    123.65403809	     76.60082560
      8.31666670	     -6.87265196	      2.19466859	      6.07090670	     -0.21840641	      0.73472741	      0.02002600	     55.90816732	     -8.62015648	     -5.45175172	      0.32088582	      0.00560051	    -11.78596511	      0.91840100	     -7.49999987	     54.17687644	     10.95983719	     -5.77556958	     75.67352807	      1.32075222	     25.27297853	    -17.13981161	     -7.49999987	    -33.57252760	     -3.05710345	      4.54259042	     65.74554759	     20.34077100	     72.15620928	    128.69483366	     85.86201677	     84.63362817	     22.25852766	     75.89412532	    123.60741106	     76.09793022
      8.33333330	     -6.76783645	      2.25388888	      5.89554109	     -0.21630045	      0.73778560	      0.01963654	     55.64861174	     -8.55037448	     -5.65430211	      0.29795222	      0.00520025	    -11.68166961	      0.50927910	     -7.49999987	     53.73293645	     10.89559205	     -5.81136692	     75.33511224	      1.31484575	     25.40532966	    -16.87223682	     -7.49999987	    -33.46700609	     -3.19073743	      4.35785858	     65.25165684	     20.22312750	     72.47976635	    128.81589614	     84.89794163	     84.04106740	     22.03572946	     76.06326234	    123.63662499	     75.44152489
      8.35000000	     -6.53284478	      2.46373332	      5.68224958	     -0.22169021	      0.73794279	      0.01973853	     55.40514669	     -8.59824596	     -6.34725472	      0.26440659	      0.00461477	    -11.35138596	      0.31822699	     -7.49999987	     53.59788410	     10.87397637	     -6.20992397	     75.32001789	      1.31458230	     24.21095581	    -17.57389248	     -7.49999987	    -33.78144729	     -3.46711640	      4.29598258	     65.46015399	     20.25628773	     71.85808726	    128.84450773	     92.16099005	     84.32427735	     22.04836957	     75.66323355	    123.57144276	     77.30887238
      8.36666670	     -6.42554564	      2.70748172	      5.30382035	     -0.21560430	      0.74025783	      0.02041480	     55.37282105	     -8.48212917	     -7.13757352	      0.24704982	      0.00431183	    -11.18503099	     -0.14732439	     -7.49999987	     53.42100819	     10.60178717	     -6.70813678	     75.16592885	      1.31189294	     24.18312603	    -17.71152519	     -7.49999987	    -33.70082928	     -3.89414522	      4.30014432	     65.33698131	     20.39396804	     71.94745500	    128.87333958	     92.20332762	     84.20937675	     22.04464199	     75.63239547	    123.67240847	     77.32568780
      8.38333330	     -6.02758469	      2.79425497	      5.38009481	     -0.21684565	      0.74471630	      0.01945130	     54.86374144	     -8.65575834	     -7.50324211	      0.22462417	      0.00392043	    -10.92209094	      0.64466398	     -7.49999987	     52.43340087	     10.59769153	     -6.88348597	     74.66634871	      1.30317363	     23.61637046	    -18.15142599	     -7.49999987	    -34.05034463	     -3.95172939	      4.06577337	     65.31120288	     20.42382155	     72.08418133	    128.93392372	     92.56336699	     83.66573109	     22.13417365	     75.50373700	    123.70465898	     77.12458157
      8.40000000	     -5.94144813	      2.90698243	      5.59712464	     -0.21564513	      0.74702532	      0.01944824	     54.82650353	     -8.90519566	     -7.56083510	      0.21492937	      0.00375123	    -11.64122609	      1.08477070	     -7.49999987	     51.73706348	     10.60204649	     -7.06416289	     73.97249361	      1.29106357	     24.36743410	    -17.39733099	     -7.49999987	    -33.96561283	     -4.01822272	      3.78170036	     65.08047565	     20.46724242	     72.13567993	    128.81678234	     91.58865837	     83.29070684	     22.25630344	     75.69057561	    123.85526100	     76.73506053
